<svg width="16" height="16" viewBox="0 0 16 16" fill="none" xmlns="http://www.w3.org/2000/svg">
<path d="M10.395 2.01813C9.78687 1.36156 8.9375 1 8 1C7.0575 1 6.20531 1.35937 5.6 2.01187C4.98812 2.67156 4.69 3.56813 4.76 4.53625C4.89875 6.44625 6.35219 8 8 8C9.64781 8 11.0988 6.44656 11.2397 4.53687C11.3106 3.5775 11.0106 2.68281 10.395 2.01813Z" fill="black"/>
<path d="M13.5 15H2.5C2.35602 15.0019 2.21343 14.9716 2.08261 14.9115C1.95179 14.8513 1.83603 14.7627 1.74375 14.6522C1.54062 14.4094 1.45875 14.0778 1.51937 13.7425C1.78312 12.2794 2.60625 11.0503 3.9 10.1875C5.04937 9.42156 6.50531 9 8 9C9.49469 9 10.9506 9.42188 12.1 10.1875C13.3937 11.05 14.2169 12.2791 14.4806 13.7422C14.5412 14.0775 14.4594 14.4091 14.2562 14.6519C14.164 14.7625 14.0482 14.8511 13.9174 14.9113C13.7866 14.9715 13.644 15.0018 13.5 15Z" fill="black"/>
</svg>
